<svg width="310" height="330" viewBox="0 0 310 330" fill="none" xmlns="http://www.w3.org/2000/svg">
<circle cx="74" cy="2" r="2" fill="#FE8700"/>
<circle cx="74" cy="106" r="2" fill="#FE8700"/>
<circle cx="74" cy="54" r="2" fill="#FE8700"/>
<circle cx="74" cy="158" r="2" fill="#FE8700"/>
<circle cx="74" cy="28" r="2" fill="#FE8700"/>
<circle cx="74" cy="132" r="2" fill="#FE8700"/>
<circle cx="74" cy="80" r="2" fill="#FE8700"/>
<circle cx="74" cy="184" r="2" fill="#FE8700"/>
<circle cx="74" cy="15" r="2" fill="#FE8700"/>
<circle cx="74" cy="119" r="2" fill="#FE8700"/>
<circle cx="74" cy="67" r="2" fill="#FE8700"/>
<circle cx="74" cy="171" r="2" fill="#FE8700"/>
<circle cx="74" cy="41" r="2" fill="#FE8700"/>
<circle cx="74" cy="145" r="2" fill="#FE8700"/>
<circle cx="74" cy="93" r="2" fill="#FE8700"/>
<circle cx="74" cy="197" r="2" fill="#FE8700"/>
<circle cx="87" cy="2" r="2" fill="#FE8700"/>
<circle cx="87" cy="106" r="2" fill="#FE8700"/>
<circle cx="87" cy="54" r="2" fill="#FE8700"/>
<circle cx="87" cy="158" r="2" fill="#FE8700"/>
<circle cx="87" cy="28" r="2" fill="#FE8700"/>
<circle cx="87" cy="132" r="2" fill="#FE8700"/>
<circle cx="87" cy="80" r="2" fill="#FE8700"/>
<circle cx="87" cy="184" r="2" fill="#FE8700"/>
<circle cx="87" cy="15" r="2" fill="#FE8700"/>
<circle cx="87" cy="119" r="2" fill="#FE8700"/>
<circle cx="87" cy="67" r="2" fill="#FE8700"/>
<circle cx="87" cy="171" r="2" fill="#FE8700"/>
<circle cx="87" cy="41" r="2" fill="#FE8700"/>
<circle cx="87" cy="145" r="2" fill="#FE8700"/>
<circle cx="87" cy="93" r="2" fill="#FE8700"/>
<circle cx="87" cy="197" r="2" fill="#FE8700"/>
<circle cx="100" cy="2" r="2" fill="#FE8700"/>
<circle cx="100" cy="106" r="2" fill="#FE8700"/>
<circle cx="100" cy="54" r="2" fill="#FE8700"/>
<circle cx="100" cy="158" r="2" fill="#FE8700"/>
<circle cx="100" cy="28" r="2" fill="#FE8700"/>
<circle cx="100" cy="132" r="2" fill="#FE8700"/>
<circle cx="100" cy="80" r="2" fill="#FE8700"/>
<circle cx="100" cy="184" r="2" fill="#FE8700"/>
<circle cx="100" cy="15" r="2" fill="#FE8700"/>
<circle cx="100" cy="119" r="2" fill="#FE8700"/>
<circle cx="100" cy="67" r="2" fill="#FE8700"/>
<circle cx="100" cy="171" r="2" fill="#FE8700"/>
<circle cx="100" cy="41" r="2" fill="#FE8700"/>
<circle cx="100" cy="145" r="2" fill="#FE8700"/>
<circle cx="100" cy="93" r="2" fill="#FE8700"/>
<circle cx="100" cy="197" r="2" fill="#FE8700"/>
<circle cx="113" cy="2" r="2" fill="#FE8700"/>
<circle cx="113" cy="106" r="2" fill="#FE8700"/>
<circle cx="113" cy="54" r="2" fill="#FE8700"/>
<circle cx="113" cy="158" r="2" fill="#FE8700"/>
<circle cx="113" cy="28" r="2" fill="#FE8700"/>
<circle cx="113" cy="132" r="2" fill="#FE8700"/>
<circle cx="113" cy="80" r="2" fill="#FE8700"/>
<circle cx="113" cy="184" r="2" fill="#FE8700"/>
<circle cx="113" cy="15" r="2" fill="#FE8700"/>
<circle cx="113" cy="119" r="2" fill="#FE8700"/>
<circle cx="113" cy="67" r="2" fill="#FE8700"/>
<circle cx="113" cy="171" r="2" fill="#FE8700"/>
<circle cx="113" cy="41" r="2" fill="#FE8700"/>
<circle cx="113" cy="145" r="2" fill="#FE8700"/>
<circle cx="113" cy="93" r="2" fill="#FE8700"/>
<circle cx="113" cy="197" r="2" fill="#FE8700"/>
<circle cx="126" cy="2" r="2" fill="#FE8700"/>
<circle cx="126" cy="106" r="2" fill="#FE8700"/>
<circle cx="126" cy="54" r="2" fill="#FE8700"/>
<circle cx="126" cy="158" r="2" fill="#FE8700"/>
<circle cx="126" cy="28" r="2" fill="#FE8700"/>
<circle cx="126" cy="132" r="2" fill="#FE8700"/>
<circle cx="126" cy="80" r="2" fill="#FE8700"/>
<circle cx="126" cy="184" r="2" fill="#FE8700"/>
<circle cx="126" cy="15" r="2" fill="#FE8700"/>
<circle cx="126" cy="119" r="2" fill="#FE8700"/>
<circle cx="126" cy="67" r="2" fill="#FE8700"/>
<circle cx="126" cy="171" r="2" fill="#FE8700"/>
<circle cx="126" cy="41" r="2" fill="#FE8700"/>
<circle cx="126" cy="145" r="2" fill="#FE8700"/>
<circle cx="126" cy="93" r="2" fill="#FE8700"/>
<circle cx="126" cy="197" r="2" fill="#FE8700"/>
<circle cx="139" cy="2" r="2" fill="#FE8700"/>
<circle cx="139" cy="106" r="2" fill="#FE8700"/>
<circle cx="139" cy="54" r="2" fill="#FE8700"/>
<circle cx="139" cy="158" r="2" fill="#FE8700"/>
<circle cx="139" cy="28" r="2" fill="#FE8700"/>
<circle cx="139" cy="132" r="2" fill="#FE8700"/>
<circle cx="139" cy="80" r="2" fill="#FE8700"/>
<circle cx="139" cy="184" r="2" fill="#FE8700"/>
<circle cx="191" cy="2" r="2" fill="#FE8700"/>
<circle cx="269" cy="2" r="2" fill="#FE8700"/>
<circle cx="191" cy="106" r="2" fill="#FE8700"/>
<circle cx="269" cy="106" r="2" fill="#FE8700"/>
<circle cx="191" cy="54" r="2" fill="#FE8700"/>
<circle cx="269" cy="54" r="2" fill="#FE8700"/>
<circle cx="191" cy="158" r="2" fill="#FE8700"/>
<circle cx="269" cy="158" r="2" fill="#FE8700"/>
<circle cx="191" cy="28" r="2" fill="#FE8700"/>
<circle cx="269" cy="28" r="2" fill="#FE8700"/>
<circle cx="191" cy="132" r="2" fill="#FE8700"/>
<circle cx="269" cy="132" r="2" fill="#FE8700"/>
<circle cx="191" cy="80" r="2" fill="#FE8700"/>
<circle cx="269" cy="80" r="2" fill="#FE8700"/>
<circle cx="191" cy="184" r="2" fill="#FE8700"/>
<circle cx="269" cy="184" r="2" fill="#FE8700"/>
<circle cx="139" cy="15" r="2" fill="#FE8700"/>
<circle cx="139" cy="119" r="2" fill="#FE8700"/>
<circle cx="139" cy="67" r="2" fill="#FE8700"/>
<circle cx="139" cy="171" r="2" fill="#FE8700"/>
<circle cx="139" cy="41" r="2" fill="#FE8700"/>
<circle cx="139" cy="145" r="2" fill="#FE8700"/>
<circle cx="139" cy="93" r="2" fill="#FE8700"/>
<circle cx="139" cy="197" r="2" fill="#FE8700"/>
<circle cx="191" cy="15" r="2" fill="#FE8700"/>
<circle cx="269" cy="15" r="2" fill="#FE8700"/>
<circle cx="191" cy="119" r="2" fill="#FE8700"/>
<circle cx="269" cy="119" r="2" fill="#FE8700"/>
<circle cx="191" cy="67" r="2" fill="#FE8700"/>
<circle cx="269" cy="67" r="2" fill="#FE8700"/>
<circle cx="191" cy="171" r="2" fill="#FE8700"/>
<circle cx="269" cy="171" r="2" fill="#FE8700"/>
<circle cx="191" cy="41" r="2" fill="#FE8700"/>
<circle cx="269" cy="41" r="2" fill="#FE8700"/>
<circle cx="191" cy="145" r="2" fill="#FE8700"/>
<circle cx="269" cy="145" r="2" fill="#FE8700"/>
<circle cx="191" cy="93" r="2" fill="#FE8700"/>
<circle cx="269" cy="93" r="2" fill="#FE8700"/>
<circle cx="191" cy="197" r="2" fill="#FE8700"/>
<circle cx="269" cy="197" r="2" fill="#FE8700"/>
<circle cx="152" cy="2" r="2" fill="#FE8700"/>
<circle cx="152" cy="106" r="2" fill="#FE8700"/>
<circle cx="152" cy="54" r="2" fill="#FE8700"/>
<circle cx="152" cy="158" r="2" fill="#FE8700"/>
<circle cx="152" cy="28" r="2" fill="#FE8700"/>
<circle cx="152" cy="132" r="2" fill="#FE8700"/>
<circle cx="152" cy="80" r="2" fill="#FE8700"/>
<circle cx="152" cy="184" r="2" fill="#FE8700"/>
<circle cx="204" cy="2" r="2" fill="#FE8700"/>
<circle cx="282" cy="2" r="2" fill="#FE8700"/>
<circle cx="204" cy="106" r="2" fill="#FE8700"/>
<circle cx="282" cy="106" r="2" fill="#FE8700"/>
<circle cx="204" cy="54" r="2" fill="#FE8700"/>
<circle cx="282" cy="54" r="2" fill="#FE8700"/>
<circle cx="204" cy="158" r="2" fill="#FE8700"/>
<circle cx="282" cy="158" r="2" fill="#FE8700"/>
<circle cx="204" cy="28" r="2" fill="#FE8700"/>
<circle cx="282" cy="28" r="2" fill="#FE8700"/>
<circle cx="204" cy="132" r="2" fill="#FE8700"/>
<circle cx="282" cy="132" r="2" fill="#FE8700"/>
<circle cx="204" cy="80" r="2" fill="#FE8700"/>
<circle cx="282" cy="80" r="2" fill="#FE8700"/>
<circle cx="204" cy="184" r="2" fill="#FE8700"/>
<circle cx="282" cy="184" r="2" fill="#FE8700"/>
<circle cx="152" cy="15" r="2" fill="#FE8700"/>
<circle cx="152" cy="119" r="2" fill="#FE8700"/>
<circle cx="152" cy="67" r="2" fill="#FE8700"/>
<circle cx="152" cy="171" r="2" fill="#FE8700"/>
<circle cx="152" cy="41" r="2" fill="#FE8700"/>
<circle cx="152" cy="145" r="2" fill="#FE8700"/>
<circle cx="152" cy="93" r="2" fill="#FE8700"/>
<circle cx="152" cy="197" r="2" fill="#FE8700"/>
<circle cx="204" cy="15" r="2" fill="#FE8700"/>
<circle cx="282" cy="15" r="2" fill="#FE8700"/>
<circle cx="204" cy="119" r="2" fill="#FE8700"/>
<circle cx="282" cy="119" r="2" fill="#FE8700"/>
<circle cx="204" cy="67" r="2" fill="#FE8700"/>
<circle cx="282" cy="67" r="2" fill="#FE8700"/>
<circle cx="204" cy="171" r="2" fill="#FE8700"/>
<circle cx="282" cy="171" r="2" fill="#FE8700"/>
<circle cx="204" cy="41" r="2" fill="#FE8700"/>
<circle cx="282" cy="41" r="2" fill="#FE8700"/>
<circle cx="204" cy="145" r="2" fill="#FE8700"/>
<circle cx="282" cy="145" r="2" fill="#FE8700"/>
<circle cx="204" cy="93" r="2" fill="#FE8700"/>
<circle cx="282" cy="93" r="2" fill="#FE8700"/>
<circle cx="204" cy="197" r="2" fill="#FE8700"/>
<circle cx="282" cy="197" r="2" fill="#FE8700"/>
<circle cx="165" cy="2" r="2" fill="#FE8700"/>
<circle cx="243" cy="2" r="2" fill="#FE8700"/>
<circle cx="165" cy="106" r="2" fill="#FE8700"/>
<circle cx="243" cy="106" r="2" fill="#FE8700"/>
<circle cx="165" cy="54" r="2" fill="#FE8700"/>
<circle cx="243" cy="54" r="2" fill="#FE8700"/>
<circle cx="165" cy="158" r="2" fill="#FE8700"/>
<circle cx="243" cy="158" r="2" fill="#FE8700"/>
<circle cx="165" cy="28" r="2" fill="#FE8700"/>
<circle cx="243" cy="28" r="2" fill="#FE8700"/>
<circle cx="165" cy="132" r="2" fill="#FE8700"/>
<circle cx="243" cy="132" r="2" fill="#FE8700"/>
<circle cx="165" cy="80" r="2" fill="#FE8700"/>
<circle cx="243" cy="80" r="2" fill="#FE8700"/>
<circle cx="165" cy="184" r="2" fill="#FE8700"/>
<circle cx="243" cy="184" r="2" fill="#FE8700"/>
<circle cx="217" cy="2" r="2" fill="#FE8700"/>
<circle cx="295" cy="2" r="2" fill="#FE8700"/>
<circle cx="217" cy="106" r="2" fill="#FE8700"/>
<circle cx="295" cy="106" r="2" fill="#FE8700"/>
<circle cx="217" cy="54" r="2" fill="#FE8700"/>
<circle cx="295" cy="54" r="2" fill="#FE8700"/>
<circle cx="217" cy="158" r="2" fill="#FE8700"/>
<circle cx="295" cy="158" r="2" fill="#FE8700"/>
<circle cx="217" cy="28" r="2" fill="#FE8700"/>
<circle cx="295" cy="28" r="2" fill="#FE8700"/>
<circle cx="217" cy="132" r="2" fill="#FE8700"/>
<circle cx="295" cy="132" r="2" fill="#FE8700"/>
<circle cx="217" cy="80" r="2" fill="#FE8700"/>
<circle cx="295" cy="80" r="2" fill="#FE8700"/>
<circle cx="217" cy="184" r="2" fill="#FE8700"/>
<circle cx="295" cy="184" r="2" fill="#FE8700"/>
<circle cx="165" cy="15" r="2" fill="#FE8700"/>
<circle cx="243" cy="15" r="2" fill="#FE8700"/>
<circle cx="165" cy="119" r="2" fill="#FE8700"/>
<circle cx="243" cy="119" r="2" fill="#FE8700"/>
<circle cx="165" cy="67" r="2" fill="#FE8700"/>
<circle cx="243" cy="67" r="2" fill="#FE8700"/>
<circle cx="165" cy="171" r="2" fill="#FE8700"/>
<circle cx="243" cy="171" r="2" fill="#FE8700"/>
<circle cx="165" cy="41" r="2" fill="#FE8700"/>
<circle cx="243" cy="41" r="2" fill="#FE8700"/>
<circle cx="165" cy="145" r="2" fill="#FE8700"/>
<circle cx="243" cy="145" r="2" fill="#FE8700"/>
<circle cx="165" cy="93" r="2" fill="#FE8700"/>
<circle cx="243" cy="93" r="2" fill="#FE8700"/>
<circle cx="165" cy="197" r="2" fill="#FE8700"/>
<circle cx="243" cy="197" r="2" fill="#FE8700"/>
<circle cx="217" cy="15" r="2" fill="#FE8700"/>
<circle cx="295" cy="15" r="2" fill="#FE8700"/>
<circle cx="217" cy="119" r="2" fill="#FE8700"/>
<circle cx="295" cy="119" r="2" fill="#FE8700"/>
<circle cx="217" cy="67" r="2" fill="#FE8700"/>
<circle cx="295" cy="67" r="2" fill="#FE8700"/>
<circle cx="217" cy="171" r="2" fill="#FE8700"/>
<circle cx="295" cy="171" r="2" fill="#FE8700"/>
<circle cx="217" cy="41" r="2" fill="#FE8700"/>
<circle cx="295" cy="41" r="2" fill="#FE8700"/>
<circle cx="217" cy="145" r="2" fill="#FE8700"/>
<circle cx="295" cy="145" r="2" fill="#FE8700"/>
<circle cx="217" cy="93" r="2" fill="#FE8700"/>
<circle cx="295" cy="93" r="2" fill="#FE8700"/>
<circle cx="217" cy="197" r="2" fill="#FE8700"/>
<circle cx="295" cy="197" r="2" fill="#FE8700"/>
<circle cx="178" cy="2" r="2" fill="#FE8700"/>
<circle cx="256" cy="2" r="2" fill="#FE8700"/>
<circle cx="178" cy="106" r="2" fill="#FE8700"/>
<circle cx="256" cy="106" r="2" fill="#FE8700"/>
<circle cx="178" cy="54" r="2" fill="#FE8700"/>
<circle cx="256" cy="54" r="2" fill="#FE8700"/>
<circle cx="178" cy="158" r="2" fill="#FE8700"/>
<circle cx="256" cy="158" r="2" fill="#FE8700"/>
<circle cx="178" cy="28" r="2" fill="#FE8700"/>
<circle cx="256" cy="28" r="2" fill="#FE8700"/>
<circle cx="178" cy="132" r="2" fill="#FE8700"/>
<circle cx="256" cy="132" r="2" fill="#FE8700"/>
<circle cx="178" cy="80" r="2" fill="#FE8700"/>
<circle cx="256" cy="80" r="2" fill="#FE8700"/>
<circle cx="178" cy="184" r="2" fill="#FE8700"/>
<circle cx="256" cy="184" r="2" fill="#FE8700"/>
<circle cx="230" cy="2" r="2" fill="#FE8700"/>
<circle cx="308" cy="2" r="2" fill="#FE8700"/>
<circle cx="230" cy="106" r="2" fill="#FE8700"/>
<circle cx="308" cy="106" r="2" fill="#FE8700"/>
<circle cx="230" cy="54" r="2" fill="#FE8700"/>
<circle cx="308" cy="54" r="2" fill="#FE8700"/>
<circle cx="230" cy="158" r="2" fill="#FE8700"/>
<circle cx="308" cy="158" r="2" fill="#FE8700"/>
<circle cx="230" cy="28" r="2" fill="#FE8700"/>
<circle cx="308" cy="28" r="2" fill="#FE8700"/>
<circle cx="230" cy="132" r="2" fill="#FE8700"/>
<circle cx="308" cy="132" r="2" fill="#FE8700"/>
<circle cx="230" cy="80" r="2" fill="#FE8700"/>
<circle cx="308" cy="80" r="2" fill="#FE8700"/>
<circle cx="230" cy="184" r="2" fill="#FE8700"/>
<circle cx="308" cy="184" r="2" fill="#FE8700"/>
<circle cx="178" cy="15" r="2" fill="#FE8700"/>
<circle cx="256" cy="15" r="2" fill="#FE8700"/>
<circle cx="178" cy="119" r="2" fill="#FE8700"/>
<circle cx="256" cy="119" r="2" fill="#FE8700"/>
<circle cx="178" cy="67" r="2" fill="#FE8700"/>
<circle cx="256" cy="67" r="2" fill="#FE8700"/>
<circle cx="178" cy="171" r="2" fill="#FE8700"/>
<circle cx="256" cy="171" r="2" fill="#FE8700"/>
<circle cx="178" cy="41" r="2" fill="#FE8700"/>
<circle cx="256" cy="41" r="2" fill="#FE8700"/>
<circle cx="178" cy="145" r="2" fill="#FE8700"/>
<circle cx="256" cy="145" r="2" fill="#FE8700"/>
<circle cx="178" cy="93" r="2" fill="#FE8700"/>
<circle cx="256" cy="93" r="2" fill="#FE8700"/>
<circle cx="178" cy="197" r="2" fill="#FE8700"/>
<circle cx="256" cy="197" r="2" fill="#FE8700"/>
<circle cx="230" cy="15" r="2" fill="#FE8700"/>
<circle cx="308" cy="15" r="2" fill="#FE8700"/>
<circle cx="230" cy="119" r="2" fill="#FE8700"/>
<circle cx="308" cy="119" r="2" fill="#FE8700"/>
<circle cx="230" cy="67" r="2" fill="#FE8700"/>
<circle cx="308" cy="67" r="2" fill="#FE8700"/>
<circle cx="230" cy="171" r="2" fill="#FE8700"/>
<circle cx="308" cy="171" r="2" fill="#FE8700"/>
<circle cx="230" cy="41" r="2" fill="#FE8700"/>
<circle cx="308" cy="41" r="2" fill="#FE8700"/>
<circle cx="230" cy="145" r="2" fill="#FE8700"/>
<circle cx="308" cy="145" r="2" fill="#FE8700"/>
<circle cx="230" cy="93" r="2" fill="#FE8700"/>
<circle cx="308" cy="93" r="2" fill="#FE8700"/>
<circle cx="230" cy="197" r="2" fill="#FE8700"/>
<circle cx="308" cy="197" r="2" fill="#FE8700"/>
<path d="M273 193.5C273 220.497 264.994 246.888 249.996 269.335C234.997 291.783 213.678 309.278 188.736 319.61C163.794 329.941 136.349 332.644 109.87 327.377C83.3918 322.11 59.0698 309.11 39.9799 290.02L136.5 193.5H273Z" fill="#FFDA44"/>
</svg>
